<svg width="304" height="304" viewBox="0 0 304 304" fill="none" xmlns="http://www.w3.org/2000/svg">
<rect width="304" height="304" rx="48" fill="#0A0A0A"/>
<path fill-rule="evenodd" clip-rule="evenodd" d="M110.655 81.8276C119.597 63.9459 133.675 49.3323 152 49.3323C164.963 49.3323 175.884 56.7811 184.096 67.1001C192.34 77.4597 198.674 91.6249 202.732 107.716C203.993 112.714 200.963 117.788 195.965 119.049C190.967 120.309 185.893 117.28 184.633 112.282C181.01 97.9184 175.612 86.4168 169.49 78.7235C163.335 70.9895 157.256 67.9989 152 67.9989C144.555 67.9989 135.3 74.278 127.351 90.176C119.681 105.515 114.666 127.36 114.666 151.999C114.666 176.638 119.681 198.482 127.351 213.822C135.3 229.72 144.555 235.999 152 235.999C153.912 235.999 155.851 235.617 157.825 234.817L164.841 252.115C160.786 253.759 156.471 254.666 152 254.666C133.675 254.666 119.597 240.052 110.655 222.17C101.434 203.73 95.9998 178.908 95.9998 151.999C95.9998 125.09 101.434 100.268 110.655 81.8276Z" fill="white"/>
<path fill-rule="evenodd" clip-rule="evenodd" d="M185.901 159.545L229 181.402L208.436 224.982L191.658 216.8L204.927 189.592L177.719 176.323L185.901 159.545Z" fill="white"/>
<path fill-rule="evenodd" clip-rule="evenodd" d="M90.1773 127.35C74.2793 135.3 68.0003 144.554 68.0003 151.999C68.0003 159.444 74.2793 168.699 90.1773 176.648C105.517 184.318 127.361 189.333 152 189.333C176.318 189.333 197.91 184.452 213.223 176.94L229 181.399L221.444 193.699C203.083 202.706 178.568 207.999 152 207.999C125.091 207.999 100.269 202.565 81.8289 193.344C63.9472 184.403 49.3336 170.324 49.3336 151.999C49.3336 133.675 63.9472 119.596 81.8289 110.655C100.269 101.434 125.091 95.9993 152 95.9993C175.608 95.9993 197.55 100.18 214.987 107.387C232.066 114.445 246.406 125.102 252.114 139.153L234.82 146.179C231.876 138.931 223.06 130.921 207.857 124.638C193.012 118.503 173.547 114.666 152 114.666C127.361 114.666 105.517 119.68 90.1773 127.35Z" fill="white"/>
</svg>
